<?xml version="1.0" standalone="no"?>
<!DOCTYPE svg PUBLIC "-//W3C//DTD SVG 20010904//EN"
 "http://www.w3.org/TR/2001/REC-SVG-20010904/DTD/svg10.dtd">
<svg version="1.0" xmlns="http://www.w3.org/2000/svg"
 width="512.000000pt" height="512.000000pt" viewBox="0 0 512.000000 512.000000"
 preserveAspectRatio="xMidYMid meet">
<metadata>
Created by potrace 1.11, written by Peter Selinger 2001-2013
</metadata>
<g transform="translate(0.000000,512.000000) scale(0.100000,-0.100000)"
fill="#000000" stroke="none">
<path d="M4301 4673 c-88 -31 -120 -78 -320 -463 -102 -195 -272 -521 -379
-725 -289 -551 -401 -765 -597 -1140 -163 -312 -222 -423 -232 -434 -2 -3
-207 198 -456 446 l-452 451 -73 22 c-84 26 -130 22 -207 -14 -93 -44 -70 -7
-575 -946 -84 -157 -229 -427 -323 -600 -265 -489 -257 -471 -256 -554 1 -126
49 -205 153 -256 61 -30 71 -32 145 -28 90 5 149 33 200 95 17 20 110 186 208
368 97 181 245 456 328 610 84 154 187 346 229 428 43 81 81 147 84 147 4 0
209 -202 457 -449 247 -247 466 -457 485 -466 19 -10 65 -20 101 -23 85 -6
152 16 211 68 50 43 44 33 468 845 161 308 386 738 500 955 114 217 261 499
327 625 66 127 165 313 219 415 54 102 108 210 121 240 64 156 -8 331 -160
387 -45 16 -154 14 -206 -4z"/>
</g>
</svg>
